<svg version="1.0"
 width="24" height="24" viewBox="0 0 1024.000000 1024.000000">

<g transform="translate(0.000000,1024.000000) scale(0.100000,-0.100000)"
fill="current" stroke="none">
<path d="M5812 8745 c-213 -20 -489 -76 -652 -131 -111 -38 -300 -114 -340
-137 -19 -11 -53 -29 -75 -40 -99 -52 -380 -234 -424 -275 -14 -14 -51 -45
-81 -71 -60 -50 -84 -76 -187 -197 -70 -83 -103 -126 -153 -205 l-30 -46 -98
-6 c-351 -21 -594 -59 -842 -134 -178 -54 -306 -95 -339 -110 -18 -8 -45 -19
-60 -23 -105 -33 -490 -224 -621 -308 -337 -217 -414 -278 -690 -552 -291
-290 -512 -605 -708 -1010 -50 -102 -58 -128 -48 -140 13 -17 22 -36 62 -135
32 -79 95 -203 142 -283 18 -29 32 -55 32 -57 0 -7 99 -170 128 -210 16 -22
39 -57 51 -77 13 -21 26 -38 31 -38 4 0 17 -15 28 -32 51 -86 272 -325 422
-458 46 -41 93 -83 105 -93 11 -11 65 -52 120 -92 55 -41 114 -85 132 -100 17
-14 53 -37 80 -52 26 -15 68 -41 93 -58 94 -66 385 -214 585 -297 120 -51 191
-75 460 -157 223 -68 528 -119 768 -128 l169 -6 61 -91 c153 -227 289 -360
545 -530 252 -166 572 -312 812 -370 180 -43 252 -58 470 -93 122 -20 420 -23
515 -5 361 68 569 143 1130 406 l109 51 -84 6 c-256 18 -702 163 -945 307
-336 198 -511 404 -629 740 -15 40 -14 42 7 54 12 6 38 20 57 31 19 11 56 32
82 46 188 104 418 264 587 410 227 195 421 402 580 621 38 52 78 105 88 118
l18 22 80 -102 c82 -106 321 -352 410 -423 27 -22 55 -44 61 -50 6 -5 22 -17
34 -25 13 -8 36 -25 51 -38 33 -27 177 -122 185 -122 3 0 29 -15 58 -34 45
-29 184 -99 331 -167 59 -28 274 -97 357 -115 285 -62 359 -73 593 -88 188
-12 421 -12 473 0 23 5 21 7 -24 47 -304 265 -584 621 -762 972 -74 145 -142
295 -142 312 0 8 -5 24 -11 35 -36 67 -89 359 -89 488 0 74 27 282 45 345 8
28 24 84 36 125 48 169 237 563 333 695 12 17 34 50 48 75 68 118 272 366 452
549 l131 133 -175 -5 c-537 -18 -1080 -146 -1450 -342 -165 -87 -331 -193
-416 -264 -17 -14 -42 -35 -56 -46 -180 -141 -430 -410 -560 -602 -27 -40 -52
-73 -57 -73 -4 0 -46 44 -92 97 -204 235 -342 374 -519 523 -36 30 -67 57 -70
60 -27 31 -328 240 -344 240 -3 0 -31 17 -63 39 -32 21 -101 59 -153 85 -126
63 -124 60 -106 127 8 30 21 72 30 94 26 63 109 224 126 243 8 9 31 37 51 62
123 152 295 282 514 389 295 143 479 216 644 257 l74 17 -29 24 c-16 13 -73
54 -128 90 -277 184 -573 282 -951 313 -146 12 -211 11 -383 -5z m128 -493 c0
-5 -21 -26 -47 -48 -216 -182 -419 -512 -478 -778 -7 -33 -1 -34 -170 19 -66
21 -145 44 -175 51 -86 22 -385 81 -482 95 -71 10 -88 15 -88 29 0 15 85 99
174 173 65 54 243 164 351 215 79 38 215 91 325 128 231 76 590 147 590 116z
m-1570 -1148 c236 -24 555 -88 745 -150 288 -94 430 -158 738 -333 71 -40 216
-141 344 -239 132 -101 426 -385 501 -482 23 -30 81 -105 129 -167 88 -112
207 -277 231 -320 14 -25 15 -22 -139 -236 -194 -268 -311 -409 -479 -578
-141 -141 -205 -197 -335 -292 -49 -37 -97 -72 -105 -79 -30 -25 -98 -67 -315
-196 -38 -22 -106 -57 -150 -77 -44 -20 -100 -46 -125 -57 -214 -98 -644 -215
-960 -262 -235 -35 -652 -44 -852 -19 -56 7 -58 12 -28 93 59 158 154 735 180
1087 22 307 11 854 -26 1208 -8 83 -19 195 -25 250 -6 55 -14 127 -20 160 -5
33 -18 121 -30 195 -21 140 -47 278 -76 413 -9 42 -14 79 -12 82 3 2 75 7 160
11 84 3 156 8 159 11 8 8 320 -6 490 -23z m-1262 -301 c18 -109 41 -254 52
-323 27 -174 67 -551 76 -700 3 -69 8 -141 9 -160 16 -187 16 -480 0 -725 -17
-265 -69 -687 -100 -815 -8 -36 -22 -101 -30 -145 -21 -113 -46 -205 -57 -205
-5 0 -98 29 -205 65 -181 60 -313 112 -388 151 -16 9 -66 35 -110 57 -44 22
-99 53 -122 69 -23 15 -50 28 -61 28 -16 0 -66 30 -82 50 -3 4 -40 31 -84 61
-43 30 -88 61 -100 69 -26 17 -168 134 -215 175 -106 94 -231 223 -301 311 -8
10 -32 40 -53 65 -20 25 -37 49 -37 53 0 3 84 6 188 6 103 0 211 3 240 6 l52
7 0 268 0 269 -370 0 c-282 0 -370 3 -370 12 0 24 144 241 265 399 272 353
661 678 1059 882 144 74 191 95 356 157 130 48 311 106 346 109 6 1 23 -79 42
-196z m5658 -78 c-3 -8 -33 -56 -67 -107 -33 -50 -65 -102 -69 -114 -5 -13
-25 -57 -44 -98 -147 -314 -206 -566 -206 -886 1 -258 17 -379 80 -589 45
-153 151 -384 231 -503 21 -33 39 -62 39 -65 0 -3 14 -22 30 -43 37 -47 38
-55 3 -36 -16 8 -75 38 -133 65 -58 28 -134 67 -168 86 -80 44 -256 161 -272
180 -7 8 -19 15 -26 15 -8 0 -14 4 -14 8 0 4 -13 15 -29 25 -46 27 -322 304
-395 397 -85 108 -244 346 -252 376 -4 17 13 62 59 157 74 148 115 220 128
225 5 2 9 8 9 14 0 27 166 235 270 338 152 151 242 227 360 305 24 17 52 37
62 45 42 35 376 217 402 219 4 1 6 -6 2 -14z m-3347 -3422 c22 -86 102 -276
153 -363 70 -118 165 -237 281 -354 54 -54 96 -100 95 -101 -2 -2 -34 3 -73
11 -38 7 -133 25 -210 40 -214 40 -400 98 -594 183 -83 37 -115 54 -206 108
-11 7 -29 16 -40 21 -12 6 -42 26 -68 46 -26 20 -50 36 -53 36 -3 0 -20 13
-37 29 -18 16 -65 57 -104 90 -40 34 -73 66 -73 71 0 6 14 10 30 10 95 0 596
117 767 179 59 22 111 40 114 40 4 1 12 -20 18 -46z"/>
<path d="M2174 6252 c-67 -23 -128 -73 -161 -129 -38 -66 -44 -178 -13 -251
25 -57 86 -119 149 -151 50 -26 160 -29 217 -5 112 46 198 193 179 306 -30
179 -207 289 -371 230z"/>
<path d="M10080 80 l0 -80 80 0 80 0 0 80 0 80 -80 0 -80 0 0 -80z"/>
</g>
</svg>
