 <svg version="1.0"
 width="50" height="50" viewBox="0 0 1024.000000 1024.000000">

<g transform="translate(0.000000,1024.000000) scale(0.100000,-0.100000)"
fill="current" stroke="current">
<path d="M2765 8851 c-86 -14 -137 -31 -230 -76 -278 -132 -447 -382 -462
-680 -11 -213 68 -432 211 -588 101 -108 303 -218 457 -246 l44 -8 -75 -22
c-143 -43 -341 -164 -455 -277 -66 -67 -167 -219 -214 -324 -98 -216 -119
-426 -86 -830 26 -329 38 -777 31 -1215 -7 -442 -10 -524 -50 -1200 -22 -382
-23 -428 -10 -503 19 -108 78 -232 145 -300 27 -27 49 -52 49 -55 0 -3 -20 -8
-44 -11 -88 -14 -275 -72 -506 -158 -92 -35 -290 -137 -380 -196 -94 -62 -113
-77 -248 -187 -86 -72 -202 -203 -202 -229 0 -10 40 -38 169 -117 l54 -33 66
72 c74 80 220 207 296 256 170 112 543 261 785 314 285 63 455 87 795 112 300
22 463 25 665 10 74 -5 212 -14 305 -20 94 -6 247 -23 340 -36 94 -14 217 -31
275 -39 252 -34 640 -134 1030 -265 210 -71 281 -98 395 -150 11 -6 85 -33
165 -61 132 -47 379 -165 520 -249 257 -154 464 -240 715 -300 50 -11 117 -27
150 -35 259 -62 431 -85 680 -91 258 -8 370 5 555 62 303 94 476 256 562 526
29 93 33 117 36 250 4 171 -6 239 -69 434 l-40 125 -82 -46 c-45 -26 -105 -57
-134 -70 l-52 -24 23 -48 c32 -65 73 -223 81 -308 8 -94 -9 -201 -46 -292 -25
-60 -46 -89 -101 -144 -38 -38 -85 -76 -106 -85 -74 -32 -204 -73 -284 -90
-116 -24 -392 -24 -548 0 -131 20 -385 70 -475 92 -109 28 -349 106 -440 145
-115 48 -433 207 -441 220 -15 26 -501 235 -669 289 -21 7 -64 24 -95 38 -130
58 -408 149 -690 226 -327 90 -395 103 -904 176 -77 11 -142 22 -144 25 -2 2
9 10 25 19 37 19 75 69 118 154 76 152 82 254 31 538 -60 330 -92 554 -82 554
22 0 239 25 471 55 296 38 483 57 795 80 382 27 505 35 703 41 l197 7 0 -217
0 -216 68 -2 c37 0 92 -2 122 -2 l55 -1 3 219 2 218 345 -4 c189 -2 347 -6
350 -10 4 -3 13 -35 21 -69 75 -327 316 -678 584 -850 135 -88 267 -150 346
-165 l36 -7 -7 -91 c-8 -112 -22 -266 -31 -327 l-6 -46 128 -5 c71 -3 130 -5
130 -4 1 0 7 98 14 216 6 118 13 216 14 217 1 1 69 7 151 13 83 6 176 16 208
23 l58 12 19 55 c16 48 52 212 47 217 -1 1 -40 -9 -86 -23 -73 -21 -315 -53
-325 -43 -2 2 0 42 4 88 10 90 -1 293 -21 396 -6 33 -28 113 -50 177 -43 130
-45 143 -25 135 8 -3 117 -20 242 -37 381 -52 633 -89 753 -110 171 -29 380
-60 412 -60 l29 0 0 139 c0 162 16 143 -145 165 -139 19 -222 32 -360 56 -60
11 -137 25 -170 30 -33 6 -103 15 -155 21 -52 6 -205 27 -340 46 -135 19 -276
39 -315 43 -164 18 -202 29 -263 79 -63 53 -184 128 -256 159 -65 29 -217 69
-312 81 -125 16 -281 18 -296 3 -8 -8 -14 -54 -18 -127 -5 -110 -17 -145 -32
-93 l-6 23 -1 -23 -1 -23 -232 3 c-128 1 -279 4 -335 6 l-103 3 0 575 0 574
950 0 950 0 0 950 0 950 -332 2 -333 3 -8 60 c-8 64 -32 217 -71 465 -14 85
-36 233 -50 327 -14 95 -28 178 -32 184 -12 19 -64 1 -137 -49 -38 -26 -95
-63 -127 -82 -85 -53 -250 -166 -364 -250 -55 -42 -150 -111 -211 -154 -60
-44 -130 -98 -155 -121 -25 -22 -81 -70 -125 -105 -44 -36 -129 -108 -190
-160 -60 -53 -125 -105 -143 -116 -18 -11 -101 -83 -185 -160 -83 -77 -165
-151 -181 -165 -69 -57 -147 -129 -241 -220 -55 -53 -118 -112 -140 -130 -75
-63 -269 -245 -415 -389 -80 -78 -164 -160 -186 -181 l-42 -39 -48 24 c-87 43
-152 49 -485 41 l-306 -7 -6 89 c-7 99 -35 240 -64 323 -23 66 -118 224 -176
295 -151 185 -429 350 -627 372 -86 9 -89 18 -10 37 93 23 174 64 282 143 91
66 147 138 208 262 67 137 75 173 75 346 0 176 -9 220 -70 350 -52 113 -108
184 -205 266 -102 85 -198 137 -314 168 -88 24 -234 34 -311 22z m294 -270
c73 -25 159 -81 213 -138 48 -50 136 -196 145 -242 5 -20 8 -90 7 -156 0 -141
-17 -194 -92 -304 -89 -128 -194 -201 -345 -236 -84 -20 -139 -19 -232 5 -114
29 -181 63 -249 127 -94 88 -150 179 -177 285 -55 223 20 422 221 584 51 42
102 67 181 89 80 22 245 15 328 -14z m4521 -597 c10 -71 28 -190 40 -264 32
-210 40 -263 40 -292 l0 -28 -542 0 c-520 0 -542 1 -517 18 30 19 361 282 423
334 32 28 122 93 226 165 14 10 66 47 115 83 137 101 179 128 188 120 5 -4 17
-66 27 -136z m-1242 -2221 l-3 -1418 -245 -6 c-135 -3 -270 -9 -300 -13 -30
-3 -165 -13 -300 -21 -274 -17 -540 -44 -812 -81 -239 -32 -440 -54 -504 -54
l-52 0 -11 118 c-7 64 -19 164 -27 222 -8 58 -21 175 -29 260 l-15 155 37 30
c20 17 93 86 161 154 l125 124 122 -2 c176 -3 281 29 397 122 77 62 143 188
160 306 10 67 9 88 -6 152 -10 41 -25 87 -34 104 l-15 30 164 158 c90 87 236
224 324 305 88 81 196 180 240 222 44 41 114 104 154 140 41 36 104 93 140
126 36 34 95 86 130 115 36 30 92 80 125 111 34 32 64 58 69 58 4 0 6 -638 5
-1417z m1913 1335 c1 -40 2 -162 3 -272 l1 -198 -36 -19 c-20 -10 -92 -37
-160 -61 -120 -41 -128 -42 -249 -42 -157 -1 -218 16 -425 120 -130 65 -166
78 -275 101 -110 23 -148 26 -322 26 l-198 1 0 208 0 208 830 0 830 0 1 -72z
m-5096 -103 c121 -32 278 -135 376 -247 130 -149 198 -314 202 -495 l2 -88
-46 -3 c-55 -4 -68 9 -98 93 -12 33 -25 69 -30 80 -5 11 -23 63 -41 115 -49
144 -96 226 -170 299 -115 114 -279 169 -427 144 -148 -26 -288 -132 -353
-268 -32 -65 -34 -77 -34 -170 0 -99 22 -195 70 -302 8 -17 14 -35 14 -39 0
-13 189 -462 229 -544 65 -134 207 -261 348 -311 109 -39 129 -42 343 -48
l215 -6 7 -45 c4 -25 21 -164 38 -310 17 -146 35 -296 40 -335 11 -80 32 -254
60 -500 27 -244 45 -371 75 -530 60 -320 67 -369 63 -455 -5 -99 -18 -130 -83
-194 -138 -135 -387 -81 -454 98 -10 28 -28 99 -40 156 -90 460 -111 576 -121
655 -6 50 -13 97 -15 105 -3 8 -11 76 -20 151 -8 75 -17 154 -19 175 -3 22
-10 86 -16 144 -6 58 -15 109 -20 114 -5 5 -54 18 -107 27 -221 41 -275 50
-278 47 -3 -3 -20 -182 -36 -373 -16 -210 -61 -667 -79 -805 -5 -41 -12 -145
-15 -230 -3 -85 -11 -175 -17 -200 -36 -146 -142 -240 -270 -240 -55 0 -72 5
-126 37 -76 45 -107 84 -138 172 -27 76 -30 147 -14 360 6 75 15 213 20 306 6
94 15 233 20 310 26 386 42 901 35 1135 -7 288 -30 734 -46 908 -16 170 -6
404 20 511 35 137 108 265 216 376 49 51 118 111 151 132 73 47 185 89 269
103 77 12 225 4 300 -15z m-73 -356 c69 -27 133 -89 169 -164 16 -33 29 -65
29 -72 0 -14 97 -283 130 -358 26 -62 63 -101 107 -116 26 -8 135 -8 426 1
216 7 460 13 542 14 194 1 210 -6 282 -116 25 -37 28 -50 26 -112 -2 -89 -21
-134 -75 -180 -81 -70 -79 -70 -773 -70 l-620 -1 -65 31 c-138 66 -171 114
-316 469 -15 39 -33 79 -40 90 -7 11 -36 85 -65 165 -48 128 -54 154 -54 221
0 67 3 80 29 118 66 95 160 123 268 80z m3928 -143 c102 -17 207 -52 292 -99
35 -19 88 -42 118 -52 30 -10 60 -21 65 -25 27 -21 190 -52 295 -57 131 -6
222 8 368 57 48 17 90 30 94 30 5 0 8 -135 8 -300 l0 -300 -830 0 -830 0 0
369 0 370 43 5 c23 3 53 7 67 10 62 9 233 5 310 -8z m710 -2188 c93 -22 115
-32 219 -96 69 -41 157 -125 211 -199 84 -115 162 -303 189 -457 13 -71 14
-335 2 -355 -6 -9 -18 -11 -42 -6 -58 13 -202 84 -249 124 -25 20 -72 56 -105
78 -66 45 -132 116 -219 238 -107 150 -175 330 -202 537 -9 74 -14 143 -11
153 6 15 15 16 65 10 31 -3 95 -16 142 -27z m-4639 -393 c2 -43 -1 -60 -10
-60 -13 0 -17 77 -11 195 l3 55 7 -65 c5 -36 9 -92 11 -125z m39 -327 c1 -29
30 -216 39 -246 5 -18 24 -108 41 -200 53 -284 71 -336 151 -433 l38 -46 -191
-7 c-105 -3 -222 -9 -259 -13 l-69 -6 31 56 c29 55 40 83 60 157 5 19 14 118
18 220 5 102 17 259 27 348 l18 163 31 8 c44 13 65 13 65 -1z"/>
<path d="M7692 4180 c-49 -22 -72 -62 -72 -124 0 -75 67 -136 151 -136 35 0
47 6 79 38 51 51 59 98 28 160 -35 70 -111 95 -186 62z"/>
<path d="M10080 80 l0 -80 80 0 80 0 0 80 0 80 -80 0 -80 0 0 -80z"/>
</g>
</svg>